<?xml version="1.0" standalone="no"?>
<!DOCTYPE svg PUBLIC "-//W3C//DTD SVG 20010904//EN"
 "http://www.w3.org/TR/2001/REC-SVG-20010904/DTD/svg10.dtd">
<svg version="1.0" xmlns="http://www.w3.org/2000/svg"
 width="1024.000000pt" height="1024.000000pt" viewBox="0 0 1024.000000 1024.000000"
 preserveAspectRatio="xMidYMid meet">

<g transform="translate(0.000000,1024.000000) scale(0.100000,-0.100000)"
fill="#000000" stroke="none">
<path d="M2840 6483 c-388 -54 -692 -204 -961 -472 -614 -615 -647 -1580 -77
-2241 230 -265 555 -454 918 -532 91 -19 135 -22 320 -22 185 0 229 3 315 22
444 99 799 335 1041 692 l68 100 671 0 671 0 70 -102 c80 -119 245 -295 354
-378 282 -214 594 -325 947 -337 309 -11 591 56 855 204 624 347 955 1066 812
1762 -101 490 -433 921 -879 1141 -207 102 -396 155 -595 166 -52 3 -1074 6
-2270 7 -1641 2 -2196 -1 -2260 -10z m4625 -412 c80 -40 155 -120 186 -199 17
-43 23 -86 27 -175 7 -192 -21 -287 -114 -380 -148 -146 -380 -147 -528 0 -92
90 -121 187 -114 379 5 144 27 209 95 284 85 94 178 133 307 126 62 -3 91 -11
141 -35z m-4373 -187 c58 -19 120 -73 156 -132 l27 -47 3 -272 3 -272 268 -3
267 -3 59 -30 c68 -35 126 -103 145 -170 8 -27 10 -108 8 -236 -3 -216 -7
-229 -77 -302 -75 -80 -82 -81 -391 -87 l-275 -5 -5 -270 c-5 -257 -6 -272
-28 -317 -59 -120 -203 -182 -334 -144 -73 21 -147 87 -179 158 -22 50 -23 66
-27 316 l-4 262 -252 0 c-292 0 -319 5 -392 76 -78 76 -85 104 -86 332 -2 179
0 201 19 243 29 66 85 123 146 150 50 23 64 24 310 27 l257 3 0 237 c0 130 5
257 11 282 37 162 212 259 371 204z m3555 -569 c113 -34 208 -130 244 -248 18
-59 21 -87 17 -210 -3 -129 -6 -147 -32 -203 -35 -77 -112 -154 -191 -191 -52
-24 -72 -28 -155 -28 -82 0 -103 4 -150 26 -121 58 -202 166 -219 295 -15 114
-7 270 18 335 36 96 132 188 231 222 58 20 172 21 237 2z m1584 -18 c75 -36
146 -108 183 -187 31 -64 31 -67 31 -225 0 -143 -3 -166 -23 -217 -31 -77
-109 -161 -186 -201 -57 -29 -68 -32 -161 -32 -93 0 -105 2 -167 33 -83 40
-157 119 -190 200 -20 51 -23 74 -23 212 0 138 3 161 23 212 39 97 132 185
233 222 70 26 209 17 280 -17z m-787 -758 c75 -27 166 -112 203 -187 27 -56
28 -60 28 -237 0 -176 -1 -181 -27 -235 -37 -76 -109 -146 -188 -184 -58 -27
-75 -31 -150 -30 -63 0 -100 6 -143 23 -81 32 -166 113 -203 193 -28 62 -29
67 -29 233 0 163 1 172 27 227 87 187 290 269 482 197z"/>
</g>
</svg>
